<?xml version="1.0" encoding="utf-8"?>
<!-- Generator: Adobe Illustrator 24.1.1, SVG Export Plug-In . SVG Version: 6.00 Build 0)  -->
<svg version="1.1" id="Layer_1" xmlns="http://www.w3.org/2000/svg" xmlns:xlink="http://www.w3.org/1999/xlink" x="0px" y="0px"
	 viewBox="0 0 512 512" style="enable-background:new 0 0 512 512;" xml:space="preserve">
<style type="text/css">
	.st0{fill-rule:evenodd;clip-rule:evenodd;fill:#D0D0D0;}
	.st1{fill-rule:evenodd;clip-rule:evenodd;fill:#1D1D1D;}
</style>
<g>
	<path class="st0" d="M51.2,388.38l29.95-29.98H460.8V51.2H51.2V388.38z M230.4,102.4h51.2v102.4h-51.2V102.4z M230.4,256h51.2v51.2
		h-51.2V256z"/>
	<path class="st1" d="M460.8,0H51.2C23.02,0,0.25,23.05,0.25,51.2L0,512l102.4-102.4h358.4c28.15,0,51.2-23.02,51.2-51.2V51.2
		C512,23.05,488.95,0,460.8,0z M460.8,358.4H81.15L51.2,388.38V51.2h409.6V358.4z M230.4,256h51.2v51.2h-51.2V256z M230.4,102.4
		h51.2v102.4h-51.2V102.4z"/>
</g>
</svg>
